<svg width="18" height="21" viewBox="0 0 18 21" fill="none" xmlns="http://www.w3.org/2000/svg">
<g clip-path="url(#clip0_918_2512)">
<path d="M8.75391 6.10742C6.26953 6.10742 4.26562 8.11133 4.26562 10.5957C4.26562 13.0801 6.26953 15.084 8.75391 15.084C11.2383 15.084 13.2422 13.0801 13.2422 10.5957C13.2422 8.11133 11.2383 6.10742 8.75391 6.10742ZM8.75391 13.5137C7.14844 13.5137 5.83594 12.2051 5.83594 10.5957C5.83594 8.98633 7.14453 7.67773 8.75391 7.67773C10.3633 7.67773 11.6719 8.98633 11.6719 10.5957C11.6719 12.2051 10.3594 13.5137 8.75391 13.5137V13.5137ZM14.4727 5.92383C14.4727 6.50586 14.0039 6.9707 13.4258 6.9707C12.8438 6.9707 12.3789 6.50195 12.3789 5.92383C12.3789 5.3457 12.8477 4.87695 13.4258 4.87695C14.0039 4.87695 14.4727 5.3457 14.4727 5.92383ZM17.4453 6.98633C17.3789 5.58398 17.0586 4.3418 16.0313 3.31836C15.0078 2.29492 13.7656 1.97461 12.3633 1.9043C10.918 1.82227 6.58594 1.82227 5.14063 1.9043C3.74219 1.9707 2.5 2.29102 1.47266 3.31445C0.445313 4.33789 0.128906 5.58008 0.0585937 6.98242C-0.0234375 8.42773 -0.0234375 12.7598 0.0585937 14.2051C0.125 15.6074 0.445313 16.8496 1.47266 17.873C2.5 18.8965 3.73828 19.2168 5.14063 19.2871C6.58594 19.3691 10.918 19.3691 12.3633 19.2871C13.7656 19.2207 15.0078 18.9004 16.0313 17.873C17.0547 16.8496 17.375 15.6074 17.4453 14.2051C17.5273 12.7598 17.5273 8.43164 17.4453 6.98633V6.98633ZM15.5781 15.7559C15.2734 16.5215 14.6836 17.1113 13.9141 17.4199C12.7617 17.877 10.0273 17.7715 8.75391 17.7715C7.48047 17.7715 4.74219 17.873 3.59375 17.4199C2.82812 17.1152 2.23828 16.5254 1.92969 15.7559C1.47266 14.6035 1.57813 11.8691 1.57813 10.5957C1.57813 9.32227 1.47656 6.58398 1.92969 5.43555C2.23438 4.66992 2.82422 4.08008 3.59375 3.77148C4.74609 3.31445 7.48047 3.41992 8.75391 3.41992C10.0273 3.41992 12.7656 3.31836 13.9141 3.77148C14.6797 4.07617 15.2695 4.66602 15.5781 5.43555C16.0352 6.58789 15.9297 9.32227 15.9297 10.5957C15.9297 11.8691 16.0352 14.6074 15.5781 15.7559Z" fill="#F2F3F4"/>
</g>
<defs>
<clipPath id="clip0_918_2512">
<rect width="17.5" height="20" fill="white" transform="translate(0 0.599609)"/>
</clipPath>
</defs>
</svg>
