<svg width="24" height="24" viewBox="0 0 48 48" fill="none" xmlns="http://www.w3.org/2000/svg">
<path d="M8.33087 7.9371H17.2709L20.1525 15.0594L15.5234 18.1105C14.9694 18.4756 14.6367 19.0902 14.6367 19.7484C14.6418 19.9327 14.6367 19.7504 14.6367 19.7504L14.6367 19.7525L14.6367 19.7569L14.6368 19.7668L14.6371 19.7911C14.6374 19.8092 14.6379 19.8313 14.6387 19.8571C14.6404 19.9087 14.6435 19.9754 14.6489 20.0562C14.6598 20.2178 14.6804 20.4363 14.719 20.7035C14.7961 21.2376 14.9459 21.9692 15.2367 22.8316C15.8206 24.5634 16.9678 26.8056 19.2022 29.0146C21.4365 31.2236 23.7045 32.3579 25.4561 32.9351C26.3284 33.2226 27.0684 33.3707 27.6086 33.447C27.8788 33.4852 28.0998 33.5055 28.2633 33.5162C28.345 33.5216 28.4125 33.5246 28.4647 33.5263C28.4908 33.5271 28.5131 33.5276 28.5315 33.5279L28.556 33.5282L28.5661 33.5283L28.5705 33.5283L28.5726 33.5283C28.5726 33.5283 28.7949 33.5162 28.5746 33.5283C29.3288 33.5283 30.0182 33.107 30.3555 32.4401L31.689 29.8034L40.5214 31.2588V39.7626C36.3179 40.3637 24.9655 40.956 16.0447 32.1363C7.12382 23.3166 7.72297 12.0929 8.33087 7.9371ZM18.7656 20.7053L22.3615 18.3353C23.9283 17.3025 24.5493 15.3258 23.8499 13.5972L20.9684 6.4749C20.3636 4.98015 18.8993 4 17.2709 4H8.22684C6.41788 4 4.71511 5.24248 4.41815 7.18296C3.74254 11.5976 2.82294 24.6324 13.2288 34.9203C23.6346 45.2081 36.8189 44.299 41.2842 43.631C43.2469 43.3374 44.5036 41.6539 44.5036 39.8655V31.2588C44.5036 29.3342 43.0963 27.6917 41.1761 27.3753L32.3437 25.9199C30.6192 25.6357 28.909 26.4968 28.1272 28.0427L27.4372 29.4069C27.2204 29.3543 26.9783 29.2867 26.7154 29.2001C25.4803 28.793 23.7659 27.9587 22.018 26.2307C20.2702 24.5026 19.4263 22.8077 19.0146 21.5866C18.9033 21.2566 18.8232 20.96 18.7656 20.7053Z" fill="#fff"/>
</svg>
