<svg width="18" height="21" viewBox="0 0 18 21" fill="none" xmlns="http://www.w3.org/2000/svg">
<g clip-path="url(#clip0_918_2514)">
<path d="M4.41719 18.1002H0.789062V6.4166H4.41719V18.1002ZM2.60117 4.82285C1.44102 4.82285 0.5 3.86191 0.5 2.70176C0.5 2.14449 0.721373 1.61005 1.11542 1.216C1.50947 0.821959 2.04391 0.600586 2.60117 0.600586C3.15844 0.600586 3.69288 0.821959 4.08692 1.216C4.48097 1.61005 4.70234 2.14449 4.70234 2.70176C4.70234 3.86191 3.76094 4.82285 2.60117 4.82285ZM17.9961 18.1002H14.3758V12.4127C14.3758 11.0572 14.3484 9.31894 12.4895 9.31894C10.6031 9.31894 10.3141 10.7916 10.3141 12.315V18.1002H6.68984V6.4166H10.1695V8.01035H10.2203C10.7047 7.09238 11.8879 6.12363 13.6531 6.12363C17.325 6.12363 18 8.5416 18 11.6822V18.1002H17.9961Z" fill="#F2F3F4"/>
</g>
<defs>
<clipPath id="clip0_918_2514">
<rect width="17.5" height="20" fill="white" transform="translate(0.5 0.599609)"/>
</clipPath>
</defs>
</svg>
