<svg width="19" height="19" viewBox="0 0 19 19" fill="none" xmlns="http://www.w3.org/2000/svg">
<g clip-path="url(#clip0_918_2518)">
<path d="M16.3997 5.93342C16.4111 6.09331 16.4111 6.25324 16.4111 6.41313C16.4111 11.29 12.6992 16.9093 5.91497 16.9093C3.82486 16.9093 1.88325 16.304 0.25 15.2532C0.546965 15.2875 0.832469 15.2989 1.14086 15.2989C2.86545 15.2989 4.45303 14.7164 5.7208 13.7228C4.09898 13.6885 2.73984 12.6263 2.27155 11.1644C2.5 11.1986 2.72841 11.2215 2.96828 11.2215C3.29949 11.2215 3.63073 11.1758 3.93909 11.0959C2.24874 10.7532 0.980934 9.26845 0.980934 7.4753V7.42964C1.47203 7.70375 2.04314 7.87507 2.64843 7.89788C1.65477 7.23543 1.00379 6.10474 1.00379 4.82554C1.00379 4.14028 1.18649 3.51211 1.50631 2.96388C3.3223 5.20245 6.05201 6.66436 9.11289 6.82428C9.0558 6.55017 9.02152 6.26466 9.02152 5.97913C9.02152 3.94611 10.6662 2.29004 12.7106 2.29004C13.7728 2.29004 14.7322 2.73547 15.406 3.45501C16.2398 3.29512 17.0393 2.98673 17.7474 2.56415C17.4733 3.42077 16.8908 4.14031 16.1256 4.59713C16.868 4.51722 17.5875 4.31159 18.2499 4.02609C17.7475 4.75702 17.1193 5.40801 16.3997 5.93342Z" fill="#F2F3F4"/>
</g>
<defs>
<clipPath id="clip0_918_2518">
<rect width="18" height="18" fill="white" transform="translate(0.25 0.599609)"/>
</clipPath>
</defs>
</svg>
