<svg xmlns="http://www.w3.org/2000/svg" xmlns:xlink="http://www.w3.org/1999/xlink" viewBox="0 0 100 100" id="optimization">
    <defs>
        <linearGradient id="a" x1="3" x2="97" y1="50" y2="50" gradientUnits="userSpaceOnUse">
            <stop offset="0" stop-color="#104c91"></stop>
            <stop offset=".81" stop-color="#104c91"></stop>
        </linearGradient>
        <linearGradient id="b" x1="22.87" x2="47.83" y1="64.64" y2="64.64" xlink:href="#a"></linearGradient>
    </defs>
    <path fill="url(#a)" d="M95.55,28h-7a1.73,1.73,0,0,1-1.24-2.94l4.87-5a1.45,1.45,0,0,0,.42-1,1.49,1.49,0,0,0-.44-1l-11-10.68a1.45,1.45,0,0,0-2,0l-4.24,4.33a1.72,1.72,0,0,1-3-1.2v-6A1.46,1.46,0,0,0,70.52,3H55.24a1.45,1.45,0,0,0-1.45,1.46v7A1.7,1.7,0,0,1,52.73,13a1.73,1.73,0,0,1-1.89-.35l-5-4.88a1.42,1.42,0,0,0-1-.42h0a1.49,1.49,0,0,0-1,.44l-10.68,11a1.45,1.45,0,0,0,0,2l4.33,4.23a1.73,1.73,0,0,1-1.2,3h-6a1.46,1.46,0,0,0-1.46,1.46V33A32.35,32.35,0,1,0,67,71.26h3.51A1.46,1.46,0,0,0,72,69.8v-7a1.72,1.72,0,0,1,2.93-1.23l5,4.88a1.48,1.48,0,0,0,1,.42,1.51,1.51,0,0,0,1-.44L92.64,55.49a1.44,1.44,0,0,0,0-2.05L88.28,49.2a1.71,1.71,0,0,1-.4-1.89,1.69,1.69,0,0,1,1.6-1.07h6.07A1.46,1.46,0,0,0,97,44.78V29.49A1.45,1.45,0,0,0,95.55,28ZM64.37,69.56A29.44,29.44,0,1,1,30.46,35.62a28.52,28.52,0,0,1,4.9-.42A29.07,29.07,0,0,1,46,37.2,29.44,29.44,0,0,1,62.79,54a29.29,29.29,0,0,1,1.58,15.58Zm.69-17.68a32.3,32.3,0,0,0-16.94-17,14.92,14.92,0,1,1,16.94,17Zm29-8.55H89.48a4.61,4.61,0,0,0-4.29,2.89,4.54,4.54,0,0,0,1.06,5.06l3.3,3.22-8.64,8.87-4-3.87a4.63,4.63,0,0,0-7.87,3.31v5.54H67.48a33,33,0,0,0,.22-3.72,32,32,0,0,0-1.59-10A17.83,17.83,0,1,0,45.34,33.87a32,32,0,0,0-13.68-1.36V30.94h4.6a4.64,4.64,0,0,0,3.23-8l-3.29-3.2,8.65-8.87,4,3.87a4.64,4.64,0,0,0,7.88-3.32V5.92H69.07v4.6A4.61,4.61,0,0,0,72,14.81,4.55,4.55,0,0,0,77,13.75l3.22-3.29,8.87,8.65-3.86,3.95a4.64,4.64,0,0,0,3.32,7.88h5.52Z"></path>
    <path fill="url(#b)" d="M36.26,48.41c4.78,0,8.66,3.36,8.66,7.49h2.91c0-5.24-4.34-9.58-10-10.28V40.23H35v5.34c-5.77.58-10.28,5-10.28,10.33,0,5.12,4.15,9.39,9.58,10.24a1.44,1.44,0,0,0,.65.15c5,0,9.14,3.55,9.14,7.91s-4.1,7.91-9.14,7.91-9.14-3.55-9.14-7.91h-2.9c0,6,5.4,10.81,12,10.81H35v4h2.91V84.67C43.09,83.48,47,79.25,47,74.2c0-5.36-4.36-9.82-10.07-10.67a1.49,1.49,0,0,0-.63-.14c-4.78,0-8.67-3.36-8.67-7.49S31.48,48.41,36.26,48.41Z"></path>
</svg>