<svg xmlns="http://www.w3.org/2000/svg" viewBox="0 0 48 48" id="experience"><path fill-rule="evenodd" fill="#104c91" d="M32.14,32.44l1.42-.95c.96-.64,1.37-1.84,1.01-2.94h0c-.25-.74-.82-1.34-1.55-1.62-.73-.28-1.55-.22-2.23,.17-1.35,.77-3.18,1.81-4.29,2.45-.93,.53-1.5,1.52-1.5,2.59v10.85c0,.55,.45,1,1,1s1-.45,1-1v-10.85c0-.35,.19-.68,.49-.85l4.29-2.45c.16-.09,.35-.11,.53-.04,.17,.07,.31,.21,.36,.38h0c.08,.24-.01,.5-.22,.64l-2.01,1.34c-.28,.19-.45,.5-.45,.83v2c0,.33,.17,.65,.45,.83,.28,.19,.63,.22,.94,.09,0,0,3.19-1.33,4.92-2.05,1-.42,1.7-1.32,1.87-2.39l.61-3.98c.04-.29,.3-.51,.59-.51h0c.17,0,.33,.07,.44,.18,.12,.12,.18,.28,.18,.44v7.37c0,.82-.48,1.56-1.23,1.9l-6,2.67c-1.08,.48-1.77,1.55-1.77,2.72v1.71c0,.55,.45,1,1,1s1-.45,1-1v-1.71c0-.39,.23-.74,.58-.89l6-2.67c1.47-.65,2.42-2.11,2.42-3.73v-7.37c0-.7-.28-1.37-.77-1.86-.49-.49-1.16-.77-1.86-.77h0c-1.28,0-2.37,.94-2.57,2.2-.18,1.18-.44,2.87-.61,3.98-.06,.38-.31,.7-.66,.84l-3.39,1.41h0Zm-16.28,0l-3.39-1.41c-.35-.15-.6-.47-.66-.84l-.61-3.98c-.19-1.27-1.28-2.2-2.57-2.2h0c-.7,0-1.37,.28-1.86,.77-.49,.49-.77,1.16-.77,1.86v7.37c0,1.61,.95,3.07,2.42,3.73l6,2.67c.35,.16,.58,.51,.58,.89v1.71c0,.55,.45,1,1,1s1-.45,1-1v-1.71c0-1.18-.69-2.24-1.77-2.72l-6-2.67c-.75-.33-1.23-1.08-1.23-1.9v-7.37c0-.17,.07-.33,.18-.44s.28-.18,.44-.18h0c.29,0,.55,.22,.59,.51l.61,3.98c.16,1.07,.87,1.97,1.87,2.39,1.73,.72,4.92,2.05,4.92,2.05,.31,.13,.66,.09,.94-.09,.28-.19,.45-.5,.45-.83v-2c0-.33-.17-.65-.45-.83l-2.01-1.34c-.21-.14-.3-.4-.22-.64,0,0,0,0,0,0,.06-.17,.19-.31,.36-.38,.17-.07,.37-.05,.53,.04l4.29,2.45c.3,.17,.49,.5,.49,.85v10.85c0,.55,.45,1,1,1s1-.45,1-1v-10.85c0-1.07-.57-2.06-1.5-2.59-1.12-.64-2.95-1.68-4.29-2.45-.68-.39-1.5-.45-2.23-.17-.73,.28-1.3,.87-1.55,1.62h0c-.37,1.1,.05,2.3,1.01,2.94l1.42,.95h0Zm5.14-14.44c-.55,0-1,.45-1,1s.45,1,1,1h0c0,1.66,1.34,3,3,3h0c1.66,0,3-1.34,3-3h0c.55,0,1-.45,1-1s-.45-1-1-1v-.67c2.36-1.12,4-3.54,4-6.33,0-3.86-3.14-7-7-7s-7,3.14-7,7c0,2.79,1.64,5.2,4,6.33v.67h0ZM12.12,9.5c-.16-.23-.4-.39-.68-.43-.62-.09-1.26-.09-1.88,0-.28,.04-.53,.2-.68,.43l-.5,.74s-.06,.03-.1,.04c0,0-.88-.17-.88-.17-.28-.05-.56,.01-.79,.18-.51,.38-.95,.83-1.33,1.33-.17,.23-.23,.51-.18,.79l.17,.88s-.03,.06-.04,.09l-.74,.5c-.23,.16-.39,.4-.43,.68-.09,.62-.09,1.26,0,1.88,.04,.28,.2,.53,.43,.68l.74,.5s.03,.06,.04,.1c0,0-.17,.88-.17,.88-.05,.28,0,.56,.18,.79,.38,.51,.83,.95,1.33,1.33,.23,.17,.51,.23,.79,.18l.88-.17s.06,.03,.09,.04l.5,.74c.16,.23,.4,.39,.68,.43,.62,.09,1.26,.09,1.88,0,.28-.04,.53-.2,.68-.43l.5-.74s.06-.03,.1-.04c0,0,.88,.17,.88,.17,.28,.05,.56-.01,.79-.18,.51-.38,.95-.83,1.33-1.33,.17-.23,.23-.51,.18-.79l-.17-.88s.03-.06,.04-.09l.74-.5c.23-.16,.39-.4,.43-.68,.09-.62,.09-1.26,0-1.88-.04-.28-.2-.53-.43-.68l-.74-.5s-.03-.06-.04-.1c0,0,.17-.88,.17-.88,.05-.28-.01-.56-.18-.79-.38-.51-.83-.95-1.33-1.33-.23-.17-.51-.23-.79-.18l-.88,.17s-.06-.03-.09-.04l-.5-.74h0Zm12.88,10.5h0c0,.55-.45,1-1,1h0c-.55,0-1-.45-1-1h2Zm13.87-10.49c-.18-.32-.51-.51-.87-.51s-.7,.2-.87,.51l-1.48,2.66-2.86,.65c-.34,.08-.62,.33-.73,.66-.11,.33-.04,.7,.19,.96l1.97,2.31-.3,3.09c-.03,.36,.12,.7,.42,.91,.29,.21,.67,.24,1,.09l2.67-1.23,2.67,1.23c.32,.15,.71,.11,1-.09,.29-.21,.45-.55,.42-.91l-.3-3.09,1.97-2.31c.23-.27,.3-.63,.19-.96-.11-.33-.39-.58-.73-.66l-2.86-.65-1.48-2.66h0Zm-28.14,1.49l.42,.62c.12,.18,.3,.32,.51,.39,.17,.05,.33,.12,.49,.2,.2,.1,.42,.13,.64,.09l.73-.14c.11,.1,.22,.21,.32,.32l-.14,.73c-.04,.22,0,.44,.09,.64,.08,.16,.15,.32,.2,.49,.07,.21,.21,.39,.39,.51l.62,.42c0,.15,0,.31,0,.46l-.62,.42c-.18,.12-.32,.3-.39,.51-.05,.17-.12,.33-.2,.49-.1,.2-.13,.42-.09,.64l.14,.73c-.1,.11-.21,.22-.32,.32l-.73-.14c-.22-.04-.44,0-.64,.09-.16,.08-.32,.15-.49,.2-.21,.07-.39,.21-.51,.39l-.42,.62c-.15,0-.31,0-.46,0l-.42-.62c-.12-.18-.3-.32-.51-.39-.17-.05-.33-.12-.49-.2-.2-.1-.42-.13-.64-.09l-.73,.14c-.11-.1-.22-.21-.32-.32l.14-.73c.04-.22,.01-.44-.09-.64-.08-.16-.15-.32-.2-.49-.07-.21-.21-.39-.39-.51l-.62-.42c0-.15,0-.31,0-.46l.62-.42c.18-.12,.32-.3,.39-.51,.05-.17,.12-.33,.2-.49,.1-.2,.13-.42,.09-.64l-.14-.73c.1-.11,.21-.22,.32-.32l.73,.14c.22,.04,.44,.01,.64-.09,.16-.08,.32-.15,.49-.2,.21-.07,.39-.21,.51-.39l.42-.62h.46Zm27.27,1.05l.83,1.48c.14,.25,.38,.43,.65,.49l1.69,.38-1.17,1.38c-.18,.21-.26,.47-.24,.75l.17,1.78-1.51-.7c-.27-.12-.57-.12-.84,0l-1.51,.7,.17-1.78c.03-.27-.06-.54-.24-.75l-1.17-1.38,1.69-.38c.28-.06,.51-.24,.65-.49l.83-1.48h0Zm-27.5,.94c-1.38,0-2.5,1.12-2.5,2.5s1.12,2.5,2.5,2.5,2.5-1.12,2.5-2.5-1.12-2.5-2.5-2.5h0Zm14.5,5h-2v-1.34c0-.42-.27-.8-.67-.94-1.94-.69-3.33-2.54-3.33-4.72,0-2.76,2.24-5,5-5s5,2.24,5,5c0,2.18-1.39,4.03-3.33,4.72-.4,.14-.67,.52-.67,.94v1.34h0Zm-14.5-3c.28,0,.5,.22,.5,.5s-.22,.5-.5,.5-.5-.22-.5-.5,.22-.5,.5-.5h0Zm12.5-2.71v1.71c0,.55,.45,1,1,1s1-.45,1-1v-1.71c.88-.39,1.5-1.27,1.5-2.29,0-1.38-1.12-2.5-2.5-2.5s-2.5,1.12-2.5,2.5c0,1.02,.62,1.91,1.5,2.29h0Zm1-2.79c.28,0,.5,.22,.5,.5s-.22,.5-.5,.5-.5-.22-.5-.5,.22-.5,.5-.5h0Z"></path></svg>