<svg xmlns="http://www.w3.org/2000/svg" width="128" height="128" fill="none" viewBox="0 0 128 128" id="insight">
    <path stroke="#104c91" stroke-linecap="round" stroke-width="4" d="M7 117H121"></path>
    <path stroke="#104c91" stroke-width="4" d="M11 81C11 78.2386 13.2386 76 16 76V76C18.7614 76 21 78.2386 21 81V117H11V81zM35 57C35 54.2386 37.2386 52 40 52V52C42.7614 52 45 54.2386 45 57V117H35V57zM59 69C59 66.2386 61.2386 64 64 64V64C66.7614 64 69 66.2386 69 69V117H59V69zM83 83C83 80.2386 85.2386 78 88 78V78C90.7614 78 93 80.2386 93 83V117H83V83zM107 78C107 75.2386 109.239 73 112 73V73C114.761 73 117 75.2386 117 78V117H107V78z"></path>
    <circle cx="93.211" cy="40.211" r="24.211" stroke="#104c91" stroke-width="4" transform="rotate(90 93.211 40.211)"></circle>
    <path stroke="#104c91" stroke-linecap="round" stroke-width="4" d="M69 40H11"></path>
    <path stroke="#104c91" stroke-width="4" d="M107 40.5C107 42.6574 106.483 44.7834 105.492 46.6999C104.501 48.6163 103.066 50.2674 101.305 51.5148C99.5451 52.7622 97.5116 53.5695 95.375 53.8692C93.2385 54.1688 91.0613 53.952 89.0258 53.237C86.9903 52.522 85.1558 51.3296 83.6761 49.7596C82.1963 48.1897 81.1143 46.2879 80.5209 44.2137C79.9274 42.1395 79.8396 39.9533 80.265 37.8382C80.6904 35.7232 81.6165 33.7409 82.9657 32.0574L93.5 40.5H107Z"></path>
    <path stroke="#104c91" stroke-width="4" d="M105 41C105 34.3726 99.9961 29 93.8235 29C90.237 29 87.0451 30.8138 85 33.6337"></path>
    <path stroke="#104c91" stroke-linejoin="round" stroke-width="4" d="M59 12C59 10.8954 58.1046 10 57 10H34C32.8954 10 32 10.8954 32 12V24.1282C32 25.2327 32.8954 26.1282 34 26.1282H52.3071C52.838 26.1282 53.3472 26.3393 53.7223 26.7149L57.2924 30.29C57.9222 30.9207 59 30.4746 59 29.5834V12Z"></path>
</svg>