<svg xmlns="http://www.w3.org/2000/svg" width="128" height="128" fill="none" viewBox="0 0 128 128" id="quality">
    <path stroke="#104c91" stroke-width="4" d="M60.1116 28.8103C62.1128 26.3346 65.8872 26.3346 67.8884 28.8103L71.2254 32.9384C72.4688 34.4765 74.5021 35.1372 76.4121 34.6236L81.5382 33.2454C84.6124 32.4188 87.6659 34.6373 87.8298 37.8165L88.103 43.1176C88.2049 45.0928 89.4615 46.8224 91.3086 47.5297L96.2658 49.4277C99.2387 50.5659 100.405 54.1556 98.669 56.8239L95.7741 61.2732C94.6955 62.9311 94.6955 65.0689 95.7741 66.7268L98.669 71.1761C100.405 73.8444 99.2387 77.4341 96.2658 78.5723L91.3086 80.4703C89.4615 81.1776 88.2049 82.9072 88.103 84.8824L87.8298 90.1835C87.6659 93.3627 84.6124 95.5812 81.5382 94.7546L76.4121 93.3764C74.5021 92.8628 72.4688 93.5235 71.2254 95.0616L67.8884 99.1897C65.8872 101.665 62.1128 101.665 60.1116 99.1897L56.7746 95.0616C55.5312 93.5235 53.4979 92.8628 51.5879 93.3764L46.4618 94.7546C43.3876 95.5812 40.3341 93.3627 40.1702 90.1835L39.897 84.8824C39.7951 82.9072 38.5385 81.1776 36.6914 80.4703L31.7342 78.5723C28.7613 77.4341 27.5949 73.8444 29.331 71.1761L32.2259 66.7268C33.3045 65.0689 33.3045 62.9311 32.2259 61.2732L29.331 56.8239C27.5949 54.1556 28.7613 50.5659 31.7342 49.4277L36.6914 47.5297C38.5385 46.8224 39.7951 45.0928 39.897 43.1176L40.1702 37.8165C40.3341 34.6373 43.3876 32.4188 46.4618 33.2454L51.5879 34.6236C53.4979 35.1372 55.5312 34.4765 56.7746 32.9384L60.1116 28.8103Z"></path>
    <circle cx="64" cy="64" r="21" stroke="#104c91" stroke-width="4"></circle>
    <path stroke="#104c91" stroke-linecap="round" stroke-linejoin="round" stroke-width="4" d="M56 64.7188L60.0103 69.0313C60.9991 70.0947 62.6829 70.0947 63.6718 69.0313L73 59"></path>
</svg>